<svg xmlns="http://www.w3.org/2000/svg" viewBox="0 0 221.39 49.46"><defs><style>.cls-1{fill:#7ba0f4;}</style></defs><title>Asset 3</title><g id="Layer_2" data-name="Layer 2"><g id="Layer_1-2" data-name="Layer 1"><path class="cls-1" d="M23.88,16.13a13.61,13.61,0,0,1,5.65,5.49,17.28,17.28,0,0,1,2,8.63V47.14a1.88,1.88,0,1,1-3.77,0V30.26q0-6-3.36-9.1A12.31,12.31,0,0,0,15.69,18,14,14,0,0,0,9.64,19.3a10.51,10.51,0,0,0-4.3,3.58,8.75,8.75,0,0,0-1.57,5.05V47.14a1.89,1.89,0,0,1-.5,1.35A1.81,1.81,0,0,1,1.88,49,1.82,1.82,0,0,1,0,47.14V1.88A1.8,1.8,0,0,1,.53.5,1.89,1.89,0,0,1,1.88,0,1.87,1.87,0,0,1,3.26.5a1.87,1.87,0,0,1,.5,1.38v18A14.91,14.91,0,0,1,9,15.72a15.33,15.33,0,0,1,6.72-1.48A17.45,17.45,0,0,1,23.88,16.13Z"/><path class="cls-1" d="M70.18,15.19a1.87,1.87,0,0,1,.5,1.38V47.14a1.89,1.89,0,0,1-.5,1.35A1.81,1.81,0,0,1,68.8,49a1.82,1.82,0,0,1-1.88-1.88V43.88A14.93,14.93,0,0,1,61.7,48,15.33,15.33,0,0,1,55,49.46a17.44,17.44,0,0,1-8.19-1.88,13.59,13.59,0,0,1-5.65-5.49,17.26,17.26,0,0,1-2-8.63V16.57a1.88,1.88,0,1,1,3.77,0V33.46q0,6,3.36,9.1A12.3,12.3,0,0,0,55,45.7,14,14,0,0,0,61,44.41a10.5,10.5,0,0,0,4.3-3.58,8.75,8.75,0,0,0,1.57-5.05V16.57a1.8,1.8,0,0,1,.53-1.38,1.89,1.89,0,0,1,1.35-.5A1.87,1.87,0,0,1,70.18,15.19Z"/><path class="cls-1" d="M122.4,16.13A12.6,12.6,0,0,1,127,21.37,17.23,17.23,0,0,1,128.62,29V47.14a1.89,1.89,0,0,1-.5,1.35,1.8,1.8,0,0,1-1.38.53,1.82,1.82,0,0,1-1.88-1.88V29a11.91,11.91,0,0,0-2.57-7.91A8.21,8.21,0,0,0,115.69,18a9.26,9.26,0,0,0-7.09,2.89A10.33,10.33,0,0,0,106,28.56V47.14a1.89,1.89,0,0,1-.5,1.35,1.8,1.8,0,0,1-1.38.53,1.82,1.82,0,0,1-1.88-1.88V29a11.91,11.91,0,0,0-2.57-7.91A8.21,8.21,0,0,0,93.09,18a9.46,9.46,0,0,0-9.85,9.92V47.14a1.89,1.89,0,0,1-.5,1.35,1.81,1.81,0,0,1-1.38.53,1.82,1.82,0,0,1-1.88-1.88V16.57A1.8,1.8,0,0,1,80,15.19a1.89,1.89,0,0,1,1.35-.5,1.74,1.74,0,0,1,1.88,1.88V19a12.18,12.18,0,0,1,4.33-3.52,12.43,12.43,0,0,1,5.52-1.26A12.14,12.14,0,0,1,99.62,16,12.86,12.86,0,0,1,104.2,21,12.56,12.56,0,0,1,108.91,16a13,13,0,0,1,6.78-1.79A12.21,12.21,0,0,1,122.4,16.13Z"/><path class="cls-1" d="M163.27,16.6a16.63,16.63,0,0,1,6.31,6.31,17.68,17.68,0,0,1,2.29,8.91,17.8,17.8,0,0,1-2.29,9,16.62,16.62,0,0,1-6.31,6.31,18.65,18.65,0,0,1-17.8.06A16.56,16.56,0,0,1,139.16,41a17.48,17.48,0,0,1-2.39-8.79V1.88A1.8,1.8,0,0,1,137.31.5a1.89,1.89,0,0,1,1.35-.5A1.87,1.87,0,0,1,140,.5a1.87,1.87,0,0,1,.5,1.38V21.47a14.62,14.62,0,0,1,5.68-5.24,16.94,16.94,0,0,1,8.07-1.92A17.8,17.8,0,0,1,163.27,16.6ZM161.32,44a13.53,13.53,0,0,0,5-5.05,14.23,14.23,0,0,0,1.82-7.16,14.23,14.23,0,0,0-1.82-7.16,13.3,13.3,0,0,0-5-5,14.48,14.48,0,0,0-14.06,0,13.06,13.06,0,0,0-4.93,5,14.42,14.42,0,0,0-1.79,7.16A14.41,14.41,0,0,0,142.33,39,13.28,13.28,0,0,0,147.26,44a14.27,14.27,0,0,0,14.06,0Z"/><path class="cls-1" d="M179.81,46.14a11.65,11.65,0,0,1-2.29-7.47V1.88A1.81,1.81,0,0,1,178,.5,1.89,1.89,0,0,1,179.4,0a1.87,1.87,0,0,1,1.38.5,1.87,1.87,0,0,1,.5,1.38V38.67a8.43,8.43,0,0,0,1.22,4.74,3.67,3.67,0,0,0,3.17,1.85h1.57a1.44,1.44,0,0,1,1.13.5,2,2,0,0,1,.44,1.38,1.89,1.89,0,0,1-.5,1.35,1.8,1.8,0,0,1-1.38.53h-1.26A7.16,7.16,0,0,1,179.81,46.14Z"/><path class="cls-1" d="M213.76,16.54a14.93,14.93,0,0,1,5.62,6,18.51,18.51,0,0,1,2,8.73,1.68,1.68,0,0,1-.5,1.29,1.85,1.85,0,0,1-1.32.47h-26.3a14,14,0,0,0,1.95,6.62,12.43,12.43,0,0,0,4.71,4.55,13.38,13.38,0,0,0,6.59,1.63,15.16,15.16,0,0,0,4.93-.85,10.51,10.51,0,0,0,3.92-2.23,2.08,2.08,0,0,1,1.32-.5,1.65,1.65,0,0,1,1.26,2.89,15.9,15.9,0,0,1-5.24,3,17.85,17.85,0,0,1-6.18,1.19,17.32,17.32,0,0,1-8.82-2.23,15.87,15.87,0,0,1-6.06-6.21,18.34,18.34,0,0,1-2.2-9,19.62,19.62,0,0,1,2-9.07,15.19,15.19,0,0,1,5.71-6.21,15.83,15.83,0,0,1,8.38-2.23A15.61,15.61,0,0,1,213.76,16.54Zm-16.45,4.61a13.81,13.81,0,0,0-4,8.6h24.42a13.1,13.1,0,0,0-3.77-8.6,11.52,11.52,0,0,0-8.41-3.26A11.39,11.39,0,0,0,197.32,21.15Z"/></g></g></svg>