<svg xmlns="http://www.w3.org/2000/svg" viewBox="0 0 76.78 72.9"><defs><style>.cls-1{fill:#7ba0f4;}.cls-2{fill:#fff;}</style></defs><title>Asset 4</title><g id="Layer_2" data-name="Layer 2"><g id="Layer_1-2" data-name="Layer 1"><path class="cls-1" d="M0,27.66c.21-.13.43-.24.63-.38Q19.22,13.78,37.8.26A.82.82,0,0,1,39,.22q18.66,13.6,37.35,27.16l.46.35c-.06.22-.11.46-.19.68Q69.49,50.27,62.4,72.14a.92.92,0,0,1-1,.76q-23,0-45.9,0a.92.92,0,0,1-1-.76Q7.37,50.38.29,28.64C.21,28.4.1,28.19,0,28ZM38.39,69.87c6.93,0,13.85,0,20.78,0a.9.9,0,0,0,1-.75q6.4-19.77,12.85-39.51a.91.91,0,0,0-.43-1.21Q55.84,16.24,39.09,4a1,1,0,0,0-1.35,0Q21,16.25,4.14,28.43a.87.87,0,0,0-.39,1.16Q10.2,49.34,16.59,69.11a1,1,0,0,0,1.1.78C24.59,69.86,31.49,69.87,38.39,69.87Z"/><path class="cls-1" d="M38.39,69.87c-6.9,0-13.8,0-20.7,0a1,1,0,0,1-1.1-.78Q10.2,49.34,3.75,29.59a.87.87,0,0,1,.39-1.16Q21,16.25,37.74,4a1,1,0,0,1,1.35,0q16.75,12.2,33.54,24.37a.91.91,0,0,1,.43,1.21Q66.6,49.37,60.21,69.13a.9.9,0,0,1-1,.75C52.24,69.86,45.32,69.87,38.39,69.87Z"/><path class="cls-2" d="M16.37,52.62V45a2.61,2.61,0,0,0-3-3,1,1,0,0,1-.72-.28.92.92,0,0,1-.29-.7,1,1,0,0,1,1-1,2.61,2.61,0,0,0,3-3V29.45q0-4.94,4.91-4.94a.95.95,0,0,1,1,1,.92.92,0,0,1-.29.7,1,1,0,0,1-.72.28q-2.93,0-2.93,3v7.64a5.5,5.5,0,0,1-1.46,4A5.32,5.32,0,0,1,18.35,45v7.64a2.59,2.59,0,0,0,2.93,2.93,1,1,0,0,1,1,1,.92.92,0,0,1-.29.7,1,1,0,0,1-.72.28Q16.37,57.53,16.37,52.62Z"/><path class="cls-2" d="M54.78,57.25a.92.92,0,0,1-.29-.7,1,1,0,0,1,1-1,2.59,2.59,0,0,0,2.93-2.93V45A5.32,5.32,0,0,1,59.89,41a5.5,5.5,0,0,1-1.46-4V29.45q0-3-2.93-3a1,1,0,0,1-.72-.28.92.92,0,0,1-.29-.7,1,1,0,0,1,.29-.73,1,1,0,0,1,.72-.28q4.91,0,4.91,4.94v7.64a2.61,2.61,0,0,0,3,3,1,1,0,0,1,1,1,.92.92,0,0,1-.29.7,1,1,0,0,1-.72.28,2.61,2.61,0,0,0-3,3v7.64q0,4.91-4.91,4.91A1,1,0,0,1,54.78,57.25Z"/><path class="cls-2" d="M27.78,40.08A5.68,5.68,0,0,1,25.71,38a5.52,5.52,0,0,1-.76-2.84,5.45,5.45,0,0,1,.76-2.82,5.72,5.72,0,0,1,2.07-2.06,5.53,5.53,0,0,1,2.84-.76,5.45,5.45,0,0,1,2.82.76,5.88,5.88,0,0,1,2.07,2.06,5.37,5.37,0,0,1,.78,2.82A5.5,5.5,0,0,1,35.53,38a5.72,5.72,0,0,1-2.07,2.06,5.65,5.65,0,0,1-5.67,0Zm4.81-1.48A4.14,4.14,0,0,0,34,37.14a3.78,3.78,0,0,0,.54-2,3.63,3.63,0,0,0-.56-2,4.32,4.32,0,0,0-1.47-1.44,3.73,3.73,0,0,0-3.88,0,4.18,4.18,0,0,0-1.45,1.44,3.69,3.69,0,0,0-.54,2,3.85,3.85,0,0,0,.53,2,4,4,0,0,0,1.44,1.46,3.84,3.84,0,0,0,3.94,0ZM29.42,52.26a.85.85,0,0,1-.25-.63,1.06,1.06,0,0,1,.21-.62L46,29.91a1.08,1.08,0,0,1,.73-.38.83.83,0,0,1,.63.26.91.91,0,0,1,.25.65.81.81,0,0,1-.15.53L30.76,52.19a1.14,1.14,0,0,1-.71.32A.86.86,0,0,1,29.42,52.26Zm13.91-.51a5.75,5.75,0,0,1-2.06-2.06,5.44,5.44,0,0,1-.76-2.82A5.52,5.52,0,0,1,41.28,44,5.72,5.72,0,0,1,43.34,42a5.45,5.45,0,0,1,2.82-.76A5.53,5.53,0,0,1,49,42,5.69,5.69,0,0,1,51.07,44a5.53,5.53,0,0,1,.76,2.84,5.45,5.45,0,0,1-.76,2.82A5.72,5.72,0,0,1,49,51.75a5.52,5.52,0,0,1-2.84.76A5.44,5.44,0,0,1,43.34,51.75Zm4.79-1.48a4.14,4.14,0,0,0,1.45-1.45,3.72,3.72,0,0,0,.54-1.94,3.8,3.8,0,0,0-.54-2,4.07,4.07,0,0,0-1.47-1.47,3.81,3.81,0,0,0-3.92,0,4.14,4.14,0,0,0-1.45,1.45,3.84,3.84,0,0,0,0,3.94,4,4,0,0,0,1.45,1.44,3.85,3.85,0,0,0,2,.53A3.77,3.77,0,0,0,48.13,50.26Z"/></g></g></svg>