<svg xmlns="http://www.w3.org/2000/svg" viewBox="0 0 221.39 144.98"><defs><style>.cls-1{fill:#7ba0f4;}.cls-2{fill:#fff;}</style></defs><title>Asset 7</title><g id="Layer_2" data-name="Layer 2"><g id="Layer_1-2" data-name="Layer 1"><path class="cls-1" d="M72.29,27.66c.21-.13.43-.24.63-.38q18.59-13.5,37.17-27a.82.82,0,0,1,1.16,0q18.66,13.6,37.35,27.16l.46.35c-.06.22-.11.46-.19.68q-7.1,21.86-14.19,43.72a.92.92,0,0,1-1,.76q-23,0-45.9,0a.92.92,0,0,1-1-.76q-7-21.76-14.12-43.51c-.08-.23-.19-.45-.29-.67Zm38.39,42.21c6.93,0,13.85,0,20.78,0a.9.9,0,0,0,1-.75q6.4-19.77,12.85-39.51a.91.91,0,0,0-.43-1.21Q128.13,16.24,111.38,4A1,1,0,0,0,110,4Q93.25,16.25,76.43,28.43A.87.87,0,0,0,76,29.59q6.45,19.75,12.85,39.51a1,1,0,0,0,1.1.78C96.88,69.86,103.78,69.87,110.68,69.87Z"/><path class="cls-1" d="M110.68,69.87c-6.9,0-13.8,0-20.7,0a1,1,0,0,1-1.1-.78Q82.49,49.34,76,29.59a.87.87,0,0,1,.39-1.16Q93.25,16.25,110,4a1,1,0,0,1,1.35,0q16.75,12.2,33.54,24.37a.91.91,0,0,1,.43,1.21q-6.45,19.75-12.85,39.51a.9.9,0,0,1-1,.75C124.53,69.86,117.61,69.87,110.68,69.87Z"/><path class="cls-2" d="M88.66,52.62V45a2.61,2.61,0,0,0-3-3,1,1,0,0,1-.72-.28.92.92,0,0,1-.29-.7,1,1,0,0,1,1-1,2.61,2.61,0,0,0,3-3V29.45q0-4.94,4.91-4.94a.95.95,0,0,1,1,1,.92.92,0,0,1-.29.7,1,1,0,0,1-.72.28q-2.93,0-2.93,3v7.64a5.5,5.5,0,0,1-1.46,4A5.32,5.32,0,0,1,90.64,45v7.64a2.59,2.59,0,0,0,2.93,2.93,1,1,0,0,1,1,1,.92.92,0,0,1-.29.7,1,1,0,0,1-.72.28Q88.66,57.53,88.66,52.62Z"/><path class="cls-2" d="M127.07,57.25a.92.92,0,0,1-.29-.7,1,1,0,0,1,1-1,2.59,2.59,0,0,0,2.93-2.93V45A5.32,5.32,0,0,1,132.18,41a5.5,5.5,0,0,1-1.46-4V29.45q0-3-2.93-3a1,1,0,0,1-.72-.28.92.92,0,0,1-.29-.7,1,1,0,0,1,.29-.73,1,1,0,0,1,.72-.28q4.91,0,4.91,4.94v7.64a2.61,2.61,0,0,0,3,3,1,1,0,0,1,1,1,.92.92,0,0,1-.29.7,1,1,0,0,1-.72.28,2.61,2.61,0,0,0-3,3v7.64q0,4.91-4.91,4.91A1,1,0,0,1,127.07,57.25Z"/><path class="cls-2" d="M100.07,40.08A5.68,5.68,0,0,1,98,38a5.52,5.52,0,0,1-.76-2.84A5.45,5.45,0,0,1,98,32.35a5.72,5.72,0,0,1,2.07-2.06,5.53,5.53,0,0,1,2.84-.76,5.45,5.45,0,0,1,2.82.76,5.88,5.88,0,0,1,2.07,2.06,5.37,5.37,0,0,1,.78,2.82,5.5,5.5,0,0,1-.76,2.85,5.72,5.72,0,0,1-2.07,2.06,5.65,5.65,0,0,1-5.67,0Zm4.81-1.48a4.14,4.14,0,0,0,1.45-1.46,3.78,3.78,0,0,0,.54-2,3.63,3.63,0,0,0-.56-2,4.32,4.32,0,0,0-1.47-1.44,3.73,3.73,0,0,0-3.88,0,4.18,4.18,0,0,0-1.45,1.44,3.69,3.69,0,0,0-.54,2,3.85,3.85,0,0,0,.53,2,4,4,0,0,0,1.44,1.46,3.84,3.84,0,0,0,3.94,0Zm-3.16,13.67a.85.85,0,0,1-.25-.63,1.06,1.06,0,0,1,.21-.62l16.61-21.1a1.08,1.08,0,0,1,.73-.38.83.83,0,0,1,.63.26.91.91,0,0,1,.25.65.81.81,0,0,1-.15.53L103,52.19a1.14,1.14,0,0,1-.71.32A.86.86,0,0,1,101.71,52.26Zm13.91-.51a5.75,5.75,0,0,1-2.06-2.06,5.44,5.44,0,0,1-.76-2.82,5.52,5.52,0,0,1,.76-2.84A5.72,5.72,0,0,1,115.62,42a5.45,5.45,0,0,1,2.82-.76,5.53,5.53,0,0,1,2.84.76A5.69,5.69,0,0,1,123.36,44a5.53,5.53,0,0,1,.76,2.84,5.45,5.45,0,0,1-.76,2.82,5.72,5.72,0,0,1-2.07,2.06,5.52,5.52,0,0,1-2.84.76A5.44,5.44,0,0,1,115.62,51.75Zm4.79-1.48a4.14,4.14,0,0,0,1.45-1.45,3.72,3.72,0,0,0,.54-1.94,3.8,3.8,0,0,0-.54-2,4.07,4.07,0,0,0-1.47-1.47,3.81,3.81,0,0,0-3.92,0A4.14,4.14,0,0,0,115,44.9a3.84,3.84,0,0,0,0,3.94,4,4,0,0,0,1.45,1.44,3.85,3.85,0,0,0,2,.53A3.77,3.77,0,0,0,120.42,50.26Z"/><path class="cls-1" d="M23.88,111.65a13.61,13.61,0,0,1,5.65,5.49,17.28,17.28,0,0,1,2,8.63v16.89a1.88,1.88,0,1,1-3.77,0V125.77q0-6-3.36-9.1a12.31,12.31,0,0,0-8.76-3.14,14,14,0,0,0-6.06,1.29,10.51,10.51,0,0,0-4.3,3.58,8.75,8.75,0,0,0-1.57,5.05v19.21a1.89,1.89,0,0,1-.5,1.35,1.81,1.81,0,0,1-1.38.53A1.82,1.82,0,0,1,0,142.66V97.4A1.8,1.8,0,0,1,.53,96a1.89,1.89,0,0,1,1.35-.5,1.87,1.87,0,0,1,1.38.5,1.87,1.87,0,0,1,.5,1.38v18A14.91,14.91,0,0,1,9,111.24a15.33,15.33,0,0,1,6.72-1.48A17.45,17.45,0,0,1,23.88,111.65Z"/><path class="cls-1" d="M70.18,110.71a1.87,1.87,0,0,1,.5,1.38v30.57a1.89,1.89,0,0,1-.5,1.35,1.81,1.81,0,0,1-1.38.53,1.82,1.82,0,0,1-1.88-1.88V139.4a14.93,14.93,0,0,1-5.21,4.11A15.33,15.33,0,0,1,55,145a17.44,17.44,0,0,1-8.19-1.88,13.59,13.59,0,0,1-5.65-5.49,17.26,17.26,0,0,1-2-8.63V112.09a1.88,1.88,0,1,1,3.77,0V129q0,6,3.36,9.1A12.3,12.3,0,0,0,55,141.22,14,14,0,0,0,61,139.93a10.5,10.5,0,0,0,4.3-3.58,8.75,8.75,0,0,0,1.57-5.05V112.09a1.8,1.8,0,0,1,.53-1.38,1.89,1.89,0,0,1,1.35-.5A1.87,1.87,0,0,1,70.18,110.71Z"/><path class="cls-1" d="M122.4,111.65a12.6,12.6,0,0,1,4.58,5.24,17.23,17.23,0,0,1,1.63,7.63v18.14a1.89,1.89,0,0,1-.5,1.35,1.8,1.8,0,0,1-1.38.53,1.82,1.82,0,0,1-1.88-1.88V124.52a11.91,11.91,0,0,0-2.57-7.91,8.21,8.21,0,0,0-6.59-3.08,9.26,9.26,0,0,0-7.09,2.89,10.33,10.33,0,0,0-2.57,7.66v18.58a1.89,1.89,0,0,1-.5,1.35,1.8,1.8,0,0,1-1.38.53,1.82,1.82,0,0,1-1.88-1.88V124.52a11.91,11.91,0,0,0-2.57-7.91,8.21,8.21,0,0,0-6.59-3.08,9.46,9.46,0,0,0-9.85,9.92v19.21a1.89,1.89,0,0,1-.5,1.35,1.81,1.81,0,0,1-1.38.53,1.82,1.82,0,0,1-1.88-1.88V112.09a1.8,1.8,0,0,1,.53-1.38,1.89,1.89,0,0,1,1.35-.5,1.74,1.74,0,0,1,1.88,1.88v2.45A12.18,12.18,0,0,1,87.56,111a12.43,12.43,0,0,1,5.52-1.26,12.14,12.14,0,0,1,6.53,1.79,12.86,12.86,0,0,1,4.58,4.93,12.56,12.56,0,0,1,4.71-4.93,13,13,0,0,1,6.78-1.79A12.21,12.21,0,0,1,122.4,111.65Z"/><path class="cls-1" d="M163.27,112.12a16.63,16.63,0,0,1,6.31,6.31,18.61,18.61,0,0,1,0,17.89,16.62,16.62,0,0,1-6.31,6.31,18.65,18.65,0,0,1-17.8.06,16.56,16.56,0,0,1-6.31-6.18,17.48,17.48,0,0,1-2.39-8.79V97.4a1.8,1.8,0,0,1,.53-1.38,1.89,1.89,0,0,1,1.35-.5,1.74,1.74,0,0,1,1.88,1.88V117a14.62,14.62,0,0,1,5.68-5.24,16.94,16.94,0,0,1,8.07-1.92A17.8,17.8,0,0,1,163.27,112.12Zm-1.95,27.43a13.53,13.53,0,0,0,5-5.05,15,15,0,0,0,0-14.31,13.3,13.3,0,0,0-5-5,14.48,14.48,0,0,0-14.06,0,13.06,13.06,0,0,0-4.93,5,15.21,15.21,0,0,0,0,14.31,13.28,13.28,0,0,0,4.93,5.05,14.27,14.27,0,0,0,14.06,0Z"/><path class="cls-1" d="M179.81,141.66a11.65,11.65,0,0,1-2.29-7.47V97.4A1.81,1.81,0,0,1,178,96a1.89,1.89,0,0,1,1.35-.5,1.74,1.74,0,0,1,1.88,1.88v36.78a8.43,8.43,0,0,0,1.22,4.74,3.67,3.67,0,0,0,3.17,1.85h1.57a1.44,1.44,0,0,1,1.13.5,2,2,0,0,1,.44,1.38,1.89,1.89,0,0,1-.5,1.35,1.8,1.8,0,0,1-1.38.53h-1.26A7.16,7.16,0,0,1,179.81,141.66Z"/><path class="cls-1" d="M213.76,112.06a14.93,14.93,0,0,1,5.62,6,18.51,18.51,0,0,1,2,8.73,1.68,1.68,0,0,1-.5,1.29,1.85,1.85,0,0,1-1.32.47h-26.3a14,14,0,0,0,1.95,6.62,12.43,12.43,0,0,0,4.71,4.55,13.38,13.38,0,0,0,6.59,1.63,15.16,15.16,0,0,0,4.93-.85,10.51,10.51,0,0,0,3.92-2.23,2.08,2.08,0,0,1,1.32-.5,1.65,1.65,0,0,1,1.26,2.89,15.9,15.9,0,0,1-5.24,3,17.85,17.85,0,0,1-6.18,1.19,17.32,17.32,0,0,1-8.82-2.23,15.87,15.87,0,0,1-6.06-6.21,18.34,18.34,0,0,1-2.2-9,19.62,19.62,0,0,1,2-9.07,15.19,15.19,0,0,1,5.71-6.21,15.83,15.83,0,0,1,8.38-2.23A15.61,15.61,0,0,1,213.76,112.06Zm-16.45,4.61a13.81,13.81,0,0,0-4,8.6h24.42a13.1,13.1,0,0,0-3.77-8.6,11.52,11.52,0,0,0-8.41-3.26A11.39,11.39,0,0,0,197.32,116.67Z"/></g></g></svg>